<svg width="52" height="58" viewBox="0 0 52 58" fill="none" xmlns="http://www.w3.org/2000/svg">
<path d="M30.8228 14.625H36.9165M30.8228 19.5H36.9165M30.8228 24.375H36.9165M13.7603 31.6875H38.1353C40.1545 31.6875 41.7915 30.0505 41.7915 28.0312V10.9688C41.7915 8.94946 40.1545 7.3125 38.1353 7.3125H13.7603C11.741 7.3125 10.104 8.94946 10.104 10.9687V28.0312C10.104 30.0505 11.741 31.6875 13.7603 31.6875ZM23.5103 15.2344C23.5103 16.9171 22.1461 18.2812 20.4634 18.2812C18.7806 18.2812 17.4165 16.9171 17.4165 15.2344C17.4165 13.5516 18.7806 12.1875 20.4634 12.1875C22.1461 12.1875 23.5103 13.5516 23.5103 15.2344ZM25.6128 25.531C24.0773 26.3489 22.3243 26.8125 20.4631 26.8125C18.6019 26.8125 16.849 26.3489 15.3134 25.531C16.0838 23.4337 18.0987 21.9375 20.4631 21.9375C22.8275 21.9375 24.8425 23.4337 25.6128 25.531Z" stroke="#E0E0E0" stroke-width="1.5" stroke-linecap="round" stroke-linejoin="round"/>
<path d="M7.51223 50.114C7.51223 49.162 7.73156 48.308 8.17023 47.552C8.61823 46.796 9.22023 46.208 9.97623 45.788C10.7416 45.3587 11.5769 45.144 12.4822 45.144C13.5182 45.144 14.4376 45.4007 15.2402 45.914C16.0522 46.418 16.6402 47.1367 17.0042 48.07H15.0862C14.8342 47.5567 14.4842 47.174 14.0362 46.922C13.5882 46.67 13.0702 46.544 12.4822 46.544C11.8382 46.544 11.2642 46.6887 10.7602 46.978C10.2562 47.2673 9.85956 47.6827 9.57023 48.224C9.29023 48.7653 9.15023 49.3953 9.15023 50.114C9.15023 50.8327 9.29023 51.4627 9.57023 52.004C9.85956 52.5453 10.2562 52.9653 10.7602 53.264C11.2642 53.5533 11.8382 53.698 12.4822 53.698C13.0702 53.698 13.5882 53.572 14.0362 53.32C14.4842 53.068 14.8342 52.6853 15.0862 52.172H17.0042C16.6402 53.1053 16.0522 53.824 15.2402 54.328C14.4376 54.832 13.5182 55.084 12.4822 55.084C11.5676 55.084 10.7322 54.874 9.97623 54.454C9.22023 54.0247 8.61823 53.432 8.17023 52.676C7.73156 51.92 7.51223 51.066 7.51223 50.114ZM17.9324 51.108C17.9324 50.3333 18.091 49.6473 18.4084 49.05C18.735 48.4527 19.1737 47.9907 19.7244 47.664C20.2844 47.328 20.9004 47.16 21.5724 47.16C22.179 47.16 22.7064 47.2813 23.1544 47.524C23.6117 47.7573 23.9757 48.0513 24.2464 48.406V47.286H25.8564V55H24.2464V53.852C23.9757 54.216 23.607 54.5193 23.1404 54.762C22.6737 55.0047 22.1417 55.126 21.5444 55.126C20.8817 55.126 20.275 54.958 19.7244 54.622C19.1737 54.2767 18.735 53.8007 18.4084 53.194C18.091 52.578 17.9324 51.8827 17.9324 51.108ZM24.2464 51.136C24.2464 50.604 24.1344 50.142 23.9104 49.75C23.6957 49.358 23.411 49.0593 23.0564 48.854C22.7017 48.6487 22.319 48.546 21.9084 48.546C21.4977 48.546 21.115 48.6487 20.7604 48.854C20.4057 49.05 20.1164 49.344 19.8924 49.736C19.6777 50.1187 19.5704 50.576 19.5704 51.108C19.5704 51.64 19.6777 52.1067 19.8924 52.508C20.1164 52.9093 20.4057 53.2173 20.7604 53.432C21.1244 53.6373 21.507 53.74 21.9084 53.74C22.319 53.74 22.7017 53.6373 23.0564 53.432C23.411 53.2267 23.6957 52.928 23.9104 52.536C24.1344 52.1347 24.2464 51.668 24.2464 51.136ZM29.1406 48.406C29.374 48.014 29.682 47.7107 30.0646 47.496C30.4566 47.272 30.9186 47.16 31.4506 47.16V48.812H31.0446C30.4193 48.812 29.9433 48.9707 29.6166 49.288C29.2993 49.6053 29.1406 50.156 29.1406 50.94V55H27.5446V47.286H29.1406V48.406ZM34.3717 48.588V52.858C34.3717 53.1473 34.437 53.3573 34.5677 53.488C34.7077 53.6093 34.941 53.67 35.2677 53.67H36.2477V55H34.9877C34.269 55 33.7184 54.832 33.3357 54.496C32.953 54.16 32.7617 53.614 32.7617 52.858V48.588H31.8517V47.286H32.7617V45.368H34.3717V47.286H36.2477V48.588H34.3717ZM44.3807 50.954C44.3807 51.2433 44.362 51.5047 44.3247 51.738H38.4307C38.4773 52.354 38.706 52.8487 39.1167 53.222C39.5273 53.5953 40.0313 53.782 40.6287 53.782C41.4873 53.782 42.094 53.4227 42.4487 52.704H44.1707C43.9373 53.4133 43.5127 53.9967 42.8967 54.454C42.29 54.902 41.534 55.126 40.6287 55.126C39.8913 55.126 39.2287 54.9627 38.6407 54.636C38.062 54.3 37.6047 53.8333 37.2687 53.236C36.942 52.6293 36.7787 51.9293 36.7787 51.136C36.7787 50.3427 36.9373 49.6473 37.2547 49.05C37.5813 48.4433 38.034 47.9767 38.6127 47.65C39.2007 47.3233 39.8727 47.16 40.6287 47.16C41.3567 47.16 42.0053 47.3187 42.5747 47.636C43.144 47.9533 43.5873 48.4013 43.9047 48.98C44.222 49.5493 44.3807 50.2073 44.3807 50.954ZM42.7147 50.45C42.7053 49.862 42.4953 49.3907 42.0847 49.036C41.674 48.6813 41.1653 48.504 40.5587 48.504C40.008 48.504 39.5367 48.6813 39.1447 49.036C38.7527 49.3813 38.5193 49.8527 38.4447 50.45H42.7147Z" fill="#E0E0E0"/>
</svg>
