<svg width="52" height="58" viewBox="0 0 52 58" fill="none" xmlns="http://www.w3.org/2000/svg">
<path fill-rule="evenodd" clip-rule="evenodd" d="M13.7603 6.09375C11.0679 6.09375 8.88525 8.27636 8.88525 10.9687V28.0312C8.88525 30.7236 11.0679 32.9062 13.7603 32.9062H38.1353C40.8276 32.9062 43.0103 30.7236 43.0103 28.0312V10.9688C43.0103 8.27636 40.8276 6.09375 38.1353 6.09375H13.7603ZM20.4634 10.9688C18.4441 10.9688 16.8071 12.6057 16.8071 14.625C16.8071 16.6443 18.4441 18.2812 20.4634 18.2812C22.4827 18.2812 24.1196 16.6443 24.1196 14.625C24.1196 12.6057 22.4827 10.9688 20.4634 10.9688ZM14.1696 25.1108C15.1105 22.5493 17.5716 20.7188 20.4633 20.7188C23.355 20.7188 25.8162 22.5493 26.757 25.1108C26.9668 25.682 26.7231 26.3205 26.186 26.6066C24.4784 27.5162 22.5292 28.0312 20.4633 28.0312C18.3974 28.0312 16.4482 27.5162 14.7406 26.6066C14.2035 26.3205 13.9598 25.682 14.1696 25.1108ZM30.8228 13.4062C30.1497 13.4062 29.604 13.9519 29.604 14.625C29.604 15.2981 30.1497 15.8438 30.8228 15.8438H36.9165C37.5896 15.8438 38.1353 15.2981 38.1353 14.625C38.1353 13.9519 37.5896 13.4062 36.9165 13.4062H30.8228ZM29.604 19.5C29.604 18.8269 30.1497 18.2812 30.8228 18.2812H36.9165C37.5896 18.2812 38.1353 18.8269 38.1353 19.5C38.1353 20.1731 37.5896 20.7188 36.9165 20.7188H30.8228C30.1497 20.7188 29.604 20.1731 29.604 19.5ZM30.8228 23.1562C30.1497 23.1562 29.604 23.7019 29.604 24.375C29.604 25.0481 30.1497 25.5938 30.8228 25.5938H36.9165C37.5896 25.5938 38.1353 25.0481 38.1353 24.375C38.1353 23.7019 37.5896 23.1562 36.9165 23.1562H30.8228Z" fill="#49E582"/>
<path d="M7.27232 50.1C7.27232 49.1387 7.48698 48.28 7.91632 47.524C8.35498 46.7587 8.94765 46.166 9.69432 45.746C10.4503 45.3167 11.295 45.102 12.2283 45.102C13.3203 45.102 14.277 45.382 15.0983 45.942C15.9197 46.502 16.4936 47.2767 16.8203 48.266H14.5663C14.3423 47.7993 14.025 47.4493 13.6143 47.216C13.213 46.9827 12.7463 46.866 12.2143 46.866C11.645 46.866 11.1363 47.0013 10.6883 47.272C10.2496 47.5333 9.90432 47.9067 9.65232 48.392C9.40965 48.8773 9.28832 49.4467 9.28832 50.1C9.28832 50.744 9.40965 51.3133 9.65232 51.808C9.90432 52.2933 10.2496 52.6713 10.6883 52.942C11.1363 53.2033 11.645 53.334 12.2143 53.334C12.7463 53.334 13.213 53.2173 13.6143 52.984C14.025 52.7413 14.3423 52.3867 14.5663 51.92H16.8203C16.4936 52.9187 15.9197 53.698 15.0983 54.258C14.2863 54.8087 13.3296 55.084 12.2283 55.084C11.295 55.084 10.4503 54.874 9.69432 54.454C8.94765 54.0247 8.35498 53.432 7.91632 52.676C7.48698 51.92 7.27232 51.0613 7.27232 50.1ZM17.5824 51.094C17.5824 50.31 17.7364 49.6147 18.0444 49.008C18.3617 48.4013 18.7864 47.9347 19.3184 47.608C19.8597 47.2813 20.4617 47.118 21.1244 47.118C21.7031 47.118 22.2071 47.2347 22.6364 47.468C23.0751 47.7013 23.4251 47.9953 23.6864 48.35V47.244H25.6604V55H23.6864V53.866C23.4344 54.23 23.0844 54.5333 22.6364 54.776C22.1977 55.0093 21.6891 55.126 21.1104 55.126C20.4571 55.126 19.8597 54.958 19.3184 54.622C18.7864 54.286 18.3617 53.8147 18.0444 53.208C17.7364 52.592 17.5824 51.8873 17.5824 51.094ZM23.6864 51.122C23.6864 50.646 23.5931 50.24 23.4064 49.904C23.2197 49.5587 22.9677 49.2973 22.6504 49.12C22.3331 48.9333 21.9924 48.84 21.6284 48.84C21.2644 48.84 20.9284 48.9287 20.6204 49.106C20.3124 49.2833 20.0604 49.5447 19.8644 49.89C19.6777 50.226 19.5844 50.6273 19.5844 51.094C19.5844 51.5607 19.6777 51.9713 19.8644 52.326C20.0604 52.6713 20.3124 52.9373 20.6204 53.124C20.9377 53.3107 21.2737 53.404 21.6284 53.404C21.9924 53.404 22.3331 53.3153 22.6504 53.138C22.9677 52.9513 23.2197 52.69 23.4064 52.354C23.5931 52.0087 23.6864 51.598 23.6864 51.122ZM29.1267 48.448C29.3787 48.0373 29.7054 47.7153 30.1067 47.482C30.5174 47.2487 30.984 47.132 31.5067 47.132V49.19H30.9887C30.3727 49.19 29.906 49.3347 29.5887 49.624C29.2807 49.9133 29.1267 50.4173 29.1267 51.136V55H27.1667V47.244H29.1267V48.448ZM34.7008 48.854V52.606C34.7008 52.8673 34.7615 53.0587 34.8828 53.18C35.0135 53.292 35.2282 53.348 35.5268 53.348H36.4368V55H35.2048C33.5528 55 32.7268 54.1973 32.7268 52.592V48.854H31.8028V47.244H32.7268V45.326H34.7008V47.244H36.4368V48.854H34.7008ZM44.6486 50.954C44.6486 51.234 44.6299 51.486 44.5926 51.71H38.9226C38.9692 52.27 39.1652 52.7087 39.5106 53.026C39.8559 53.3433 40.2806 53.502 40.7846 53.502C41.5126 53.502 42.0306 53.1893 42.3386 52.564H44.4526C44.2286 53.3107 43.7992 53.9267 43.1646 54.412C42.5299 54.888 41.7506 55.126 40.8266 55.126C40.0799 55.126 39.4079 54.9627 38.8106 54.636C38.2226 54.3 37.7606 53.8287 37.4246 53.222C37.0979 52.6153 36.9346 51.9153 36.9346 51.122C36.9346 50.3193 37.0979 49.6147 37.4246 49.008C37.7512 48.4013 38.2086 47.9347 38.7966 47.608C39.3846 47.2813 40.0612 47.118 40.8266 47.118C41.5639 47.118 42.2219 47.2767 42.8006 47.594C43.3886 47.9113 43.8412 48.364 44.1586 48.952C44.4852 49.5307 44.6486 50.198 44.6486 50.954ZM42.6186 50.394C42.6092 49.89 42.4272 49.4887 42.0726 49.19C41.7179 48.882 41.2839 48.728 40.7706 48.728C40.2852 48.728 39.8746 48.8773 39.5386 49.176C39.2119 49.4653 39.0112 49.8713 38.9366 50.394H42.6186Z" fill="#49E582"/>
</svg>
