<svg width="37" height="39" viewBox="0 0 37 39" fill="none" xmlns="http://www.w3.org/2000/svg">
<path d="M33.5 11.625V9C33.5 8.07174 33.1313 7.1815 32.4749 6.52513C31.8185 5.86875 30.9283 5.5 30 5.5H5.5C4.57174 5.5 3.6815 5.86875 3.02513 6.52513C2.36875 7.1815 2 8.07174 2 9V33.5C2 34.4283 2.36875 35.3185 3.02513 35.9749C3.6815 36.6313 4.57174 37 5.5 37H11.625M24.75 2V9M10.75 2V9M2 16H10.75M27.375 29.125L24.75 27.025V23M35.25 26.5C35.25 32.299 30.549 37 24.75 37C18.951 37 14.25 32.299 14.25 26.5C14.25 20.701 18.951 16 24.75 16C30.549 16 35.25 20.701 35.25 26.5Z" stroke="#16A34A" stroke-width="3" stroke-linecap="round" stroke-linejoin="round"/>
</svg>
