<svg width="52" height="57" viewBox="0 0 52 57" fill="none" xmlns="http://www.w3.org/2000/svg">
<path d="M10.395 19.1418L24.6788 4.85802C25.3796 4.15721 26.5158 4.15721 27.2167 4.85802L41.5004 19.1418M13.9841 15.5527V31.7036C13.9841 32.6947 14.7875 33.4981 15.7786 33.4981H22.3586V25.7218C22.3586 24.7307 23.1621 23.9272 24.1532 23.9272H27.7423C28.7334 23.9272 29.5368 24.7307 29.5368 25.7218V33.4981H36.1168C37.1079 33.4981 37.9113 32.6947 37.9113 31.7036V15.5527M19.9659 33.4981H33.1259" stroke="#E0E0E0" stroke-width="2" stroke-linecap="round" stroke-linejoin="round"/>
<path d="M8.25475 52.2957H4.18075L3.48075 54.2837H1.81475L5.30075 44.5397H7.14875L10.6348 54.2837H8.95475L8.25475 52.2957ZM7.80675 50.9937L6.22475 46.4717L4.62875 50.9937H7.80675ZM11.2105 50.4197C11.2105 49.6264 11.3691 48.931 11.6865 48.3337C12.0131 47.727 12.4611 47.2604 13.0305 46.9337C13.5998 46.607 14.2531 46.4437 14.9905 46.4437C15.9238 46.4437 16.6938 46.6677 17.3005 47.1157C17.9165 47.5544 18.3318 48.1844 18.5465 49.0057H16.8245C16.6845 48.623 16.4605 48.3244 16.1525 48.1097C15.8445 47.895 15.4571 47.7877 14.9905 47.7877C14.3371 47.7877 13.8145 48.021 13.4225 48.4877C13.0398 48.945 12.8485 49.589 12.8485 50.4197C12.8485 51.2504 13.0398 51.899 13.4225 52.3657C13.8145 52.8324 14.3371 53.0657 14.9905 53.0657C15.9145 53.0657 16.5258 52.6597 16.8245 51.8477H18.5465C18.3225 52.6317 17.9025 53.257 17.2865 53.7237C16.6705 54.181 15.9051 54.4097 14.9905 54.4097C14.2531 54.4097 13.5998 54.2464 13.0305 53.9197C12.4611 53.5837 12.0131 53.117 11.6865 52.5197C11.3691 51.913 11.2105 51.213 11.2105 50.4197ZM19.197 50.4197C19.197 49.6264 19.3557 48.931 19.673 48.3337C19.9997 47.727 20.4477 47.2604 21.017 46.9337C21.5863 46.607 22.2397 46.4437 22.977 46.4437C23.9103 46.4437 24.6803 46.6677 25.287 47.1157C25.903 47.5544 26.3183 48.1844 26.533 49.0057H24.811C24.671 48.623 24.447 48.3244 24.139 48.1097C23.831 47.895 23.4437 47.7877 22.977 47.7877C22.3237 47.7877 21.801 48.021 21.409 48.4877C21.0263 48.945 20.835 49.589 20.835 50.4197C20.835 51.2504 21.0263 51.899 21.409 52.3657C21.801 52.8324 22.3237 53.0657 22.977 53.0657C23.901 53.0657 24.5123 52.6597 24.811 51.8477H26.533C26.309 52.6317 25.889 53.257 25.273 53.7237C24.657 54.181 23.8917 54.4097 22.977 54.4097C22.2397 54.4097 21.5863 54.2464 21.017 53.9197C20.4477 53.5837 19.9997 53.117 19.673 52.5197C19.3557 51.913 19.197 51.213 19.197 50.4197ZM34.7015 46.5697V54.2837H33.1055V53.3737C32.8535 53.691 32.5222 53.943 32.1115 54.1297C31.7102 54.307 31.2809 54.3957 30.8235 54.3957C30.2169 54.3957 29.6709 54.2697 29.1855 54.0177C28.7095 53.7657 28.3315 53.3924 28.0515 52.8977C27.7809 52.403 27.6455 51.8057 27.6455 51.1057V46.5697H29.2275V50.8677C29.2275 51.5584 29.4002 52.0904 29.7455 52.4637C30.0909 52.8277 30.5622 53.0097 31.1595 53.0097C31.7569 53.0097 32.2282 52.8277 32.5735 52.4637C32.9282 52.0904 33.1055 51.5584 33.1055 50.8677V46.5697H34.7015ZM43.4693 50.2377C43.4693 50.527 43.4507 50.7884 43.4133 51.0217H37.5193C37.566 51.6377 37.7947 52.1324 38.2053 52.5057C38.616 52.879 39.12 53.0657 39.7173 53.0657C40.576 53.0657 41.1827 52.7064 41.5373 51.9877H43.2593C43.026 52.697 42.6013 53.2804 41.9853 53.7377C41.3787 54.1857 40.6227 54.4097 39.7173 54.4097C38.98 54.4097 38.3173 54.2464 37.7293 53.9197C37.1507 53.5837 36.6933 53.117 36.3573 52.5197C36.0307 51.913 35.8673 51.213 35.8673 50.4197C35.8673 49.6264 36.026 48.931 36.3433 48.3337C36.67 47.727 37.1227 47.2604 37.7013 46.9337C38.2893 46.607 38.9613 46.4437 39.7173 46.4437C40.4453 46.4437 41.094 46.6024 41.6633 46.9197C42.2327 47.237 42.676 47.685 42.9933 48.2637C43.3107 48.833 43.4693 49.491 43.4693 50.2377ZM41.8033 49.7337C41.794 49.1457 41.584 48.6744 41.1733 48.3197C40.7627 47.965 40.254 47.7877 39.6473 47.7877C39.0967 47.7877 38.6253 47.965 38.2333 48.3197C37.8413 48.665 37.608 49.1364 37.5333 49.7337H41.8033ZM45.444 45.5477C45.1546 45.5477 44.912 45.4497 44.716 45.2537C44.52 45.0577 44.422 44.815 44.422 44.5257C44.422 44.2364 44.52 43.9937 44.716 43.7977C44.912 43.6017 45.1546 43.5037 45.444 43.5037C45.724 43.5037 45.962 43.6017 46.158 43.7977C46.354 43.9937 46.452 44.2364 46.452 44.5257C46.452 44.815 46.354 45.0577 46.158 45.2537C45.962 45.4497 45.724 45.5477 45.444 45.5477ZM46.228 46.5697V54.2837H44.632V46.5697H46.228ZM49.5114 43.9237V54.2837H47.9154V43.9237H49.5114Z" fill="#E0E0E0"/>
</svg>
