<svg width="52" height="57" viewBox="0 0 52 57" fill="none" xmlns="http://www.w3.org/2000/svg">
<path d="M25.1018 6.12639C25.569 5.65922 26.3264 5.65922 26.7936 6.12639L40.6531 19.9859C41.1202 20.453 41.8777 20.453 42.3448 19.9859C42.812 19.5187 42.812 18.7613 42.3448 18.2941L28.4853 4.43463C27.0838 3.03314 24.8116 3.03314 23.4101 4.43464L9.55057 18.2941C9.0834 18.7613 9.0834 19.5187 9.55057 19.9859C10.0177 20.453 10.7752 20.453 11.2423 19.9859L25.1018 6.12639Z" fill="#49E582"/>
<path d="M25.9477 8.66402L38.9613 21.6776C39.0087 21.725 39.0571 21.7708 39.1064 21.815V31.7006C39.1064 33.3523 37.7675 34.6913 36.1158 34.6913H30.7327C30.072 34.6913 29.5364 34.1557 29.5364 33.495V26.3175C29.5364 25.6568 29.0009 25.1213 28.3402 25.1213H23.5552C22.8945 25.1213 22.3589 25.6568 22.3589 26.3175V33.495C22.3589 34.1557 21.8234 34.6913 21.1627 34.6913H15.7796C14.1279 34.6913 12.7889 33.3523 12.7889 31.7006V21.815C12.8383 21.7708 12.8867 21.725 12.9341 21.6776L25.9477 8.66402Z" fill="#49E582"/>
<path d="M7.85242 52.418H3.96042L3.31642 54.28H1.25842L4.77242 44.494H7.05442L10.5684 54.28H8.49642L7.85242 52.418ZM7.32042 50.85L5.90642 46.762L4.49242 50.85H7.32042ZM10.9699 50.402C10.9699 49.5993 11.1332 48.8993 11.4599 48.302C11.7866 47.6953 12.2392 47.2287 12.8179 46.902C13.3966 46.566 14.0592 46.398 14.8059 46.398C15.7672 46.398 16.5606 46.6407 17.1859 47.126C17.8206 47.602 18.2452 48.274 18.4599 49.142H16.3459C16.2339 48.806 16.0426 48.5447 15.7719 48.358C15.5106 48.162 15.1839 48.064 14.7919 48.064C14.2319 48.064 13.7886 48.2693 13.4619 48.68C13.1352 49.0813 12.9719 49.6553 12.9719 50.402C12.9719 51.1393 13.1352 51.7133 13.4619 52.124C13.7886 52.5253 14.2319 52.726 14.7919 52.726C15.5852 52.726 16.1032 52.3713 16.3459 51.662H18.4599C18.2452 52.502 17.8206 53.1693 17.1859 53.664C16.5512 54.1587 15.7579 54.406 14.8059 54.406C14.0592 54.406 13.3966 54.2427 12.8179 53.916C12.2392 53.58 11.7866 53.1133 11.4599 52.516C11.1332 51.9093 10.9699 51.2047 10.9699 50.402ZM18.9838 50.402C18.9838 49.5993 19.1471 48.8993 19.4738 48.302C19.8004 47.6953 20.2531 47.2287 20.8318 46.902C21.4104 46.566 22.0731 46.398 22.8198 46.398C23.7811 46.398 24.5744 46.6407 25.1998 47.126C25.8344 47.602 26.2591 48.274 26.4738 49.142H24.3598C24.2478 48.806 24.0564 48.5447 23.7858 48.358C23.5244 48.162 23.1978 48.064 22.8058 48.064C22.2458 48.064 21.8024 48.2693 21.4758 48.68C21.1491 49.0813 20.9858 49.6553 20.9858 50.402C20.9858 51.1393 21.1491 51.7133 21.4758 52.124C21.8024 52.5253 22.2458 52.726 22.8058 52.726C23.5991 52.726 24.1171 52.3713 24.3598 51.662H26.4738C26.2591 52.502 25.8344 53.1693 25.1998 53.664C24.5651 54.1587 23.7718 54.406 22.8198 54.406C22.0731 54.406 21.4104 54.2427 20.8318 53.916C20.2531 53.58 19.8004 53.1133 19.4738 52.516C19.1471 51.9093 18.9838 51.2047 18.9838 50.402ZM34.8237 46.524V54.28H32.8497V53.3C32.5977 53.636 32.2663 53.902 31.8557 54.098C31.4543 54.2847 31.0157 54.378 30.5397 54.378C29.933 54.378 29.3963 54.252 28.9297 54C28.463 53.7387 28.0943 53.3607 27.8237 52.866C27.5623 52.362 27.4317 51.7647 27.4317 51.074V46.524H29.3917V50.794C29.3917 51.41 29.5457 51.886 29.8537 52.222C30.1617 52.5487 30.5817 52.712 31.1137 52.712C31.655 52.712 32.0797 52.5487 32.3877 52.222C32.6957 51.886 32.8497 51.41 32.8497 50.794V46.524H34.8237ZM43.5595 50.234C43.5595 50.514 43.5408 50.766 43.5035 50.99H37.8335C37.8802 51.55 38.0762 51.9887 38.4215 52.306C38.7668 52.6233 39.1915 52.782 39.6955 52.782C40.4235 52.782 40.9415 52.4693 41.2495 51.844H43.3635C43.1395 52.5907 42.7102 53.2067 42.0755 53.692C41.4408 54.168 40.6615 54.406 39.7375 54.406C38.9908 54.406 38.3188 54.2427 37.7215 53.916C37.1335 53.58 36.6715 53.1087 36.3355 52.502C36.0088 51.8953 35.8455 51.1953 35.8455 50.402C35.8455 49.5993 36.0088 48.8947 36.3355 48.288C36.6622 47.6813 37.1195 47.2147 37.7075 46.888C38.2955 46.5613 38.9722 46.398 39.7375 46.398C40.4748 46.398 41.1328 46.5567 41.7115 46.874C42.2995 47.1913 42.7522 47.644 43.0695 48.232C43.3962 48.8107 43.5595 49.478 43.5595 50.234ZM41.5295 49.674C41.5202 49.17 41.3382 48.7687 40.9835 48.47C40.6288 48.162 40.1948 48.008 39.6815 48.008C39.1962 48.008 38.7855 48.1573 38.4495 48.456C38.1228 48.7453 37.9222 49.1513 37.8475 49.674H41.5295ZM45.5761 45.6C45.2308 45.6 44.9415 45.4927 44.7081 45.278C44.4841 45.054 44.3721 44.7787 44.3721 44.452C44.3721 44.1253 44.4841 43.8547 44.7081 43.64C44.9415 43.416 45.2308 43.304 45.5761 43.304C45.9215 43.304 46.2061 43.416 46.4301 43.64C46.6635 43.8547 46.7801 44.1253 46.7801 44.452C46.7801 44.7787 46.6635 45.054 46.4301 45.278C46.2061 45.4927 45.9215 45.6 45.5761 45.6ZM46.5421 46.524V54.28H44.5821V46.524H46.5421ZM50.0306 43.92V54.28H48.0706V43.92H50.0306Z" fill="#49E582"/>
</svg>
