<svg width="52" height="57" viewBox="0 0 52 57" fill="none" xmlns="http://www.w3.org/2000/svg">
<path d="M35.4185 29.6476C33.2503 26.786 29.8149 24.9375 25.9478 24.9375C22.0806 24.9375 18.6452 26.786 16.477 29.6476M35.4185 29.6476C38.3508 27.0375 40.1978 23.2345 40.1978 19C40.1978 11.1299 33.8178 4.75 25.9478 4.75C18.0777 4.75 11.6978 11.1299 11.6978 19C11.6978 23.2345 13.5447 27.0375 16.477 29.6476M35.4185 29.6476C32.901 31.8885 29.5833 33.25 25.9478 33.25C22.3122 33.25 18.9946 31.8885 16.477 29.6476M30.6978 15.4375C30.6978 18.0609 28.5711 20.1875 25.9478 20.1875C23.3244 20.1875 21.1978 18.0609 21.1978 15.4375C21.1978 12.8141 23.3244 10.6875 25.9478 10.6875C28.5711 10.6875 30.6978 12.8141 30.6978 15.4375Z" stroke="#E0E0E0" stroke-width="1.5" stroke-linecap="round" stroke-linejoin="round"/>
<path d="M13.3763 47.168C13.3763 47.6627 13.2597 48.1293 13.0263 48.568C12.793 49.0067 12.4197 49.366 11.9063 49.646C11.393 49.9167 10.735 50.052 9.93235 50.052H8.16835V54H6.57235V44.27H9.93235C10.679 44.27 11.309 44.4007 11.8223 44.662C12.345 44.914 12.7323 45.2593 12.9843 45.698C13.2457 46.1367 13.3763 46.6267 13.3763 47.168ZM9.93235 48.75C10.539 48.75 10.9917 48.6147 11.2903 48.344C11.589 48.064 11.7383 47.672 11.7383 47.168C11.7383 46.104 11.1363 45.572 9.93235 45.572H8.16835V48.75H9.93235ZM16.0865 47.406C16.3199 47.014 16.6279 46.7107 17.0105 46.496C17.4025 46.272 17.8645 46.16 18.3965 46.16V47.812H17.9905C17.3652 47.812 16.8892 47.9707 16.5625 48.288C16.2452 48.6053 16.0865 49.156 16.0865 49.94V54H14.4905V46.286H16.0865V47.406ZM22.8016 54.126C22.0736 54.126 21.4156 53.9627 20.8276 53.636C20.2396 53.3 19.7776 52.8333 19.4416 52.236C19.1056 51.6293 18.9376 50.9293 18.9376 50.136C18.9376 49.352 19.1102 48.6567 19.4556 48.05C19.8009 47.4433 20.2722 46.9767 20.8696 46.65C21.4669 46.3233 22.1342 46.16 22.8716 46.16C23.6089 46.16 24.2762 46.3233 24.8736 46.65C25.4709 46.9767 25.9422 47.4433 26.2876 48.05C26.6329 48.6567 26.8056 49.352 26.8056 50.136C26.8056 50.92 26.6282 51.6153 26.2736 52.222C25.9189 52.8287 25.4336 53.3 24.8176 53.636C24.2109 53.9627 23.5389 54.126 22.8016 54.126ZM22.8016 52.74C23.2122 52.74 23.5949 52.642 23.9496 52.446C24.3136 52.25 24.6076 51.956 24.8316 51.564C25.0556 51.172 25.1676 50.696 25.1676 50.136C25.1676 49.576 25.0602 49.1047 24.8456 48.722C24.6309 48.33 24.3462 48.036 23.9916 47.84C23.6369 47.644 23.2542 47.546 22.8436 47.546C22.4329 47.546 22.0502 47.644 21.6956 47.84C21.3502 48.036 21.0749 48.33 20.8696 48.722C20.6642 49.1047 20.5616 49.576 20.5616 50.136C20.5616 50.9667 20.7716 51.6107 21.1916 52.068C21.6209 52.516 22.1576 52.74 22.8016 52.74ZM31.2093 47.588H29.7813V54H28.1713V47.588H27.2613V46.286H28.1713V45.74C28.1713 44.8533 28.4046 44.2093 28.8713 43.808C29.3473 43.3973 30.0893 43.192 31.0973 43.192V44.522C30.612 44.522 30.2713 44.6153 30.0753 44.802C29.8793 44.9793 29.7813 45.292 29.7813 45.74V46.286H31.2093V47.588ZM33.0277 45.264C32.7384 45.264 32.4957 45.166 32.2997 44.97C32.1037 44.774 32.0057 44.5313 32.0057 44.242C32.0057 43.9527 32.1037 43.71 32.2997 43.514C32.4957 43.318 32.7384 43.22 33.0277 43.22C33.3077 43.22 33.5457 43.318 33.7417 43.514C33.9377 43.71 34.0357 43.9527 34.0357 44.242C34.0357 44.5313 33.9377 44.774 33.7417 44.97C33.5457 45.166 33.3077 45.264 33.0277 45.264ZM33.8117 46.286V54H32.2157V46.286H33.8117ZM37.0951 43.64V54H35.4991V43.64H37.0951ZM45.8526 49.954C45.8526 50.2433 45.8339 50.5047 45.7966 50.738H39.9026C39.9492 51.354 40.1779 51.8487 40.5886 52.222C40.9992 52.5953 41.5032 52.782 42.1006 52.782C42.9592 52.782 43.5659 52.4227 43.9206 51.704H45.6426C45.4092 52.4133 44.9846 52.9967 44.3686 53.454C43.7619 53.902 43.0059 54.126 42.1006 54.126C41.3632 54.126 40.7006 53.9627 40.1126 53.636C39.5339 53.3 39.0766 52.8333 38.7406 52.236C38.4139 51.6293 38.2506 50.9293 38.2506 50.136C38.2506 49.3427 38.4092 48.6473 38.7266 48.05C39.0532 47.4433 39.5059 46.9767 40.0846 46.65C40.6726 46.3233 41.3446 46.16 42.1006 46.16C42.8286 46.16 43.4772 46.3187 44.0466 46.636C44.6159 46.9533 45.0592 47.4013 45.3766 47.98C45.6939 48.5493 45.8526 49.2073 45.8526 49.954ZM44.1866 49.45C44.1772 48.862 43.9672 48.3907 43.5566 48.036C43.1459 47.6813 42.6372 47.504 42.0306 47.504C41.4799 47.504 41.0086 47.6813 40.6166 48.036C40.2246 48.3813 39.9912 48.8527 39.9166 49.45H44.1866Z" fill="#E0E0E0"/>
</svg>
