<svg width="52" height="58" viewBox="0 0 52 58" fill="none" xmlns="http://www.w3.org/2000/svg">
<path fill-rule="evenodd" clip-rule="evenodd" d="M36.5329 30.9535C39.5203 28.1384 41.3853 24.1452 41.3853 19.7164C41.3853 11.1905 34.4736 4.27893 25.9478 4.27893C17.4219 4.27893 10.5103 11.1905 10.5103 19.7164C10.5103 24.1452 12.3752 28.1384 15.3626 30.9535C18.1263 33.5578 21.8506 35.1539 25.9478 35.1539C30.0449 35.1539 33.7692 33.5578 36.5329 30.9535ZM16.6775 28.9192C18.8538 26.2046 22.1978 24.4664 25.9478 24.4664C29.6977 24.4664 33.0417 26.2046 35.218 28.9192C32.8515 31.3029 29.572 32.7789 25.9478 32.7789C22.3235 32.7789 19.044 31.3029 16.6775 28.9192ZM31.8853 14.9664C31.8853 18.2456 29.2269 20.9039 25.9478 20.9039C22.6686 20.9039 20.0103 18.2456 20.0103 14.9664C20.0103 11.6872 22.6686 9.02893 25.9478 9.02893C29.2269 9.02893 31.8853 11.6872 31.8853 14.9664Z" fill="#49E582"/>
<path d="M13.0811 47.9684C13.0811 48.4911 12.9551 48.9811 12.7031 49.4384C12.4605 49.8958 12.0731 50.2644 11.5411 50.5444C11.0185 50.8244 10.3558 50.9644 9.55314 50.9644H7.91514V54.7164H5.95514V44.9444H9.55314C10.3091 44.9444 10.9531 45.0751 11.4851 45.3364C12.0171 45.5978 12.4138 45.9571 12.6751 46.4144C12.9458 46.8718 13.0811 47.3898 13.0811 47.9684ZM9.46914 49.3824C10.0105 49.3824 10.4118 49.2611 10.6731 49.0184C10.9345 48.7664 11.0651 48.4164 11.0651 47.9684C11.0651 47.0164 10.5331 46.5404 9.46914 46.5404H7.91514V49.3824H9.46914ZM16.0247 48.1644C16.2767 47.7538 16.6034 47.4318 17.0047 47.1984C17.4154 46.9651 17.8821 46.8484 18.4047 46.8484V48.9064H17.8867C17.2707 48.9064 16.8041 49.0511 16.4867 49.3404C16.1787 49.6298 16.0247 50.1338 16.0247 50.8524V54.7164H14.0647V46.9604H16.0247V48.1644ZM22.7609 54.8424C22.0142 54.8424 21.3422 54.6791 20.7449 54.3524C20.1475 54.0164 19.6762 53.5451 19.3309 52.9384C18.9949 52.3318 18.8269 51.6318 18.8269 50.8384C18.8269 50.0451 18.9995 49.3451 19.3449 48.7384C19.6995 48.1318 20.1802 47.6651 20.7869 47.3384C21.3935 47.0024 22.0702 46.8344 22.8169 46.8344C23.5635 46.8344 24.2402 47.0024 24.8469 47.3384C25.4535 47.6651 25.9295 48.1318 26.2749 48.7384C26.6295 49.3451 26.8069 50.0451 26.8069 50.8384C26.8069 51.6318 26.6249 52.3318 26.2609 52.9384C25.9062 53.5451 25.4209 54.0164 24.8049 54.3524C24.1982 54.6791 23.5169 54.8424 22.7609 54.8424ZM22.7609 53.1344C23.1155 53.1344 23.4469 53.0504 23.7549 52.8824C24.0722 52.7051 24.3242 52.4438 24.5109 52.0984C24.6975 51.7531 24.7909 51.3331 24.7909 50.8384C24.7909 50.1011 24.5949 49.5364 24.2029 49.1444C23.8202 48.7431 23.3489 48.5424 22.7889 48.5424C22.2289 48.5424 21.7575 48.7431 21.3749 49.1444C21.0015 49.5364 20.8149 50.1011 20.8149 50.8384C20.8149 51.5758 20.9969 52.1451 21.3609 52.5464C21.7342 52.9384 22.2009 53.1344 22.7609 53.1344ZM31.3926 48.5704H30.0346V54.7164H28.0466V48.5704H27.1646V46.9604H28.0466V46.5684C28.0466 45.6164 28.3173 44.9164 28.8586 44.4684C29.3999 44.0204 30.2166 43.8104 31.3086 43.8384V45.4904C30.8326 45.4811 30.5013 45.5604 30.3146 45.7284C30.1279 45.8964 30.0346 46.1998 30.0346 46.6384V46.9604H31.3926V48.5704ZM33.2488 46.0364C32.9035 46.0364 32.6141 45.9291 32.3808 45.7144C32.1568 45.4904 32.0448 45.2151 32.0448 44.8884C32.0448 44.5618 32.1568 44.2911 32.3808 44.0764C32.6141 43.8524 32.9035 43.7404 33.2488 43.7404C33.5941 43.7404 33.8788 43.8524 34.1028 44.0764C34.3361 44.2911 34.4528 44.5618 34.4528 44.8884C34.4528 45.2151 34.3361 45.4904 34.1028 45.7144C33.8788 45.9291 33.5941 46.0364 33.2488 46.0364ZM34.2148 46.9604V54.7164H32.2548V46.9604H34.2148ZM37.7033 44.3564V54.7164H35.7433V44.3564H37.7033ZM46.4418 50.6704C46.4418 50.9504 46.4231 51.2024 46.3858 51.4264H40.7158C40.7624 51.9864 40.9584 52.4251 41.3038 52.7424C41.6491 53.0598 42.0738 53.2184 42.5778 53.2184C43.3058 53.2184 43.8238 52.9058 44.1318 52.2804H46.2458C46.0218 53.0271 45.5924 53.6431 44.9578 54.1284C44.3231 54.6044 43.5438 54.8424 42.6198 54.8424C41.8731 54.8424 41.2011 54.6791 40.6038 54.3524C40.0158 54.0164 39.5538 53.5451 39.2178 52.9384C38.8911 52.3318 38.7278 51.6318 38.7278 50.8384C38.7278 50.0358 38.8911 49.3311 39.2178 48.7244C39.5444 48.1178 40.0018 47.6511 40.5898 47.3244C41.1778 46.9978 41.8544 46.8344 42.6198 46.8344C43.3571 46.8344 44.0151 46.9931 44.5938 47.3104C45.1818 47.6278 45.6344 48.0804 45.9518 48.6684C46.2784 49.2471 46.4418 49.9144 46.4418 50.6704ZM44.4118 50.1104C44.4024 49.6064 44.2204 49.2051 43.8658 48.9064C43.5111 48.5984 43.0771 48.4444 42.5638 48.4444C42.0784 48.4444 41.6678 48.5938 41.3318 48.8924C41.0051 49.1818 40.8044 49.5878 40.7298 50.1104H44.4118Z" fill="#49E582"/>
</svg>
