<svg width="43" height="39" viewBox="0 0 43 39" fill="none" xmlns="http://www.w3.org/2000/svg">
<path d="M11.7223 37H31.1667M21.4445 2V37M3.94451 9.77778H7.83339C11.7223 9.77778 17.5556 7.83333 21.4445 5.88889C25.3334 7.83333 31.1667 9.77778 35.0556 9.77778H38.9445M29.2223 27.2778L35.0556 11.7222L40.8889 27.2778C39.1973 28.5417 37.1556 29.2222 35.0556 29.2222C32.9556 29.2222 30.9139 28.5417 29.2223 27.2778ZM2.00006 27.2778L7.83339 11.7222L13.6667 27.2778C11.9751 28.5417 9.93339 29.2222 7.83339 29.2222C5.73339 29.2222 3.69173 28.5417 2.00006 27.2778Z" stroke="#E6B31E" stroke-width="3" stroke-linecap="round" stroke-linejoin="round"/>
</svg>
