<svg width="32" height="39" viewBox="0 0 32 39" fill="none" xmlns="http://www.w3.org/2000/svg">
<path d="M23 5.5H26.5C27.4283 5.5 28.3185 5.86875 28.9749 6.52513C29.6312 7.1815 30 8.07174 30 9V33.5C30 34.4283 29.6312 35.3185 28.9749 35.9749C28.3185 36.6312 27.4283 37 26.5 37H5.5C4.57174 37 3.6815 36.6312 3.02513 35.9749C2.36875 35.3185 2 34.4283 2 33.5V9C2 8.07174 2.36875 7.1815 3.02513 6.52513C3.6815 5.86875 4.57174 5.5 5.5 5.5H9M10.75 23L14.25 26.5L21.25 19.5M10.75 2H21.25C22.2165 2 23 2.7835 23 3.75V7.25C23 8.2165 22.2165 9 21.25 9H10.75C9.7835 9 9 8.2165 9 7.25V3.75C9 2.7835 9.7835 2 10.75 2Z" stroke="#E6B31E" stroke-width="3" stroke-linecap="round" stroke-linejoin="round"/>
</svg>
